<?xml version="1.0" encoding="iso-8859-1"?>
<!-- Generator: Adobe Illustrator 17.1.0, SVG Export Plug-In . SVG Version: 6.00 Build 0)  -->
<!DOCTYPE svg PUBLIC "-//W3C//DTD SVG 1.1//EN" "http://www.w3.org/Graphics/SVG/1.1/DTD/svg11.dtd">
<svg version="1.1" id="Capa_1" xmlns="http://www.w3.org/2000/svg" xmlns:xlink="http://www.w3.org/1999/xlink" x="0px" y="0px"
	 viewBox="0 0 362.112 362.112" style="enable-background:new 0 0 362.112 362.112;" xml:space="preserve">
<path id="XMLID_1141_" d="M163.062,102.955c35.447-11.485,86.484-22.703,123.413-19.738c2.41,0.193,4.641,1.349,6.19,3.205
	l12.444,14.913c3.185,3.816,2.672,9.492-1.144,12.676c-3.817,3.185-9.491,2.672-12.676-1.144l-9.968-11.946
	c-27.101-1.32-68.006,5.313-106.99,17.348l-4.988,63.128c-0.235,2.974-1.928,5.638-4.521,7.113
	c-23.611,13.438-45.112,34.274-55.535,53.661c1.672,12.548,7.345,26.274,16.137,38.946c1.388,2,1.906,4.478,1.437,6.867
	s-1.888,4.486-3.929,5.812l-16.537,10.739c-1.514,0.983-3.213,1.453-4.894,1.453c-2.946,0-5.833-1.444-7.557-4.099
	c-2.707-4.169-1.522-9.743,2.646-12.45l9.028-5.863c-6.549-11.035-13.034-25.737-14.542-42.294c-0.151-1.655,0.16-3.32,0.897-4.809
	c12.968-26.195,38.633-48.26,59.792-61.158l5.097-64.506C157.151,107.178,159.597,104.078,163.062,102.955z M320.173,211.49
	l-12.446-14.913c-3.009-3.606-8.286-4.292-12.118-1.573c-21.206,15.049-49.862,26.393-73.592,29.21
	c-13.129-4.696-26.304-13.006-37.29-23.548c-3.586-3.441-9.284-3.325-12.725,0.262c-3.441,3.586-3.324,9.284,0.262,12.725
	c9.466,9.084,25.112,21.363,45.888,28.268c0.917,0.305,1.875,0.459,2.838,0.459c0.299,0,0.599-0.015,0.897-0.045
	c29.065-2.913,57.703-15.646,77.207-28.009l7.259,8.697c3.185,3.817,8.861,4.328,12.676,1.143
	C322.847,220.982,323.358,215.306,320.173,211.49z M137.443,35.355c3.61-18.833,18.823-33.016,37.854-35.292
	c1.854-0.221,3.728,0.138,5.366,1.029c16.837,9.151,25.725,27.954,22.116,46.788c-3.61,18.834-18.822,33.017-37.853,35.292
	c-0.356,0.042-0.713,0.063-1.068,0.063c-1.496,0-2.973-0.373-4.297-1.092C142.719,72.991,133.831,54.189,137.443,35.355z
	 M165.668,64.791c9.849-2.311,17.489-10.162,19.432-20.299s-2.252-20.258-10.546-26.048c-9.849,2.312-17.49,10.164-19.433,20.3
	C153.177,48.881,157.372,59.002,165.668,64.791z M278.028,344.112H87.279c-4.971,0-9,4.029-9,9s4.029,9,9,9h190.75
	c4.971,0,9-4.029,9-9S282.999,344.112,278.028,344.112z M137.013,115.169c3.342,0,6.552-1.87,8.106-5.079
	c2.167-4.474,0.296-9.856-4.177-12.023c-38.722-18.753-70.499-45.725-82.314-69.599l5.632-14.25
	c1.828-4.623-0.438-9.852-5.062-11.678c-4.622-1.829-9.852,0.438-11.678,5.062l-7.043,17.817c-0.867,2.194-0.838,4.641,0.081,6.813
	c14.592,34.509,57.37,65.003,92.538,82.035C134.36,114.879,135.697,115.169,137.013,115.169z"/>
<g>
</g>
<g>
</g>
<g>
</g>
<g>
</g>
<g>
</g>
<g>
</g>
<g>
</g>
<g>
</g>
<g>
</g>
<g>
</g>
<g>
</g>
<g>
</g>
<g>
</g>
<g>
</g>
<g>
</g>
</svg>
