<?xml version="1.0" standalone="no"?><!-- Generator: Gravit.io --><svg xmlns="http://www.w3.org/2000/svg" xmlns:xlink="http://www.w3.org/1999/xlink" style="isolation:isolate" viewBox="0 0 292 292" width="292" height="292"><defs><clipPath id="_clipPath_p5negzqXBn2cAqY9FwLCQ8UNZRpU6dpM"><rect width="292" height="292"/></clipPath></defs><g clip-path="url(#_clipPath_p5negzqXBn2cAqY9FwLCQ8UNZRpU6dpM)"><g style="isolation:isolate" id="Layer 0"/><g id="Group"><path d=" M 86.797 71.932 C 102.521 69.439 113.254 54.677 110.758 38.943 C 109.174 28.951 109.013 25.893 100 17.137 C 92.816 9.958 74.225 7.998 59.247 20.664 C 49.146 30.291 52.411 39.155 53.81 47.972 C 56.304 63.708 71.076 74.426 86.797 71.932 Z " fill="rgb(204,122,0)"/><path d=" M 282.799 68.78 C 278.745 65.014 272.403 65.245 268.635 69.301 L 234.943 105.566 C 232.13 103.563 228.878 102.193 225.401 101.641 L 210.73 99.315 C 207.215 98.758 203.656 99.052 200.329 100.116 L 179.489 55.166 C 177.16 50.144 171.201 47.961 166.18 50.289 C 161.159 52.616 158.975 58.576 161.303 63.597 L 185.451 115.681 C 184.928 117.601 185.595 113.68 177.056 169.581 L 163.874 185.793 L 164.261 186.269 C 167.913 190.76 169.906 196.372 169.906 202.159 L 169.906 250.443 C 170.07 250.449 170.231 250.467 170.396 250.467 C 177.316 250.467 182.925 244.859 182.925 237.939 L 182.925 202.078 L 196.895 184.897 L 209.309 187.268 L 206.047 207.843 C 205.936 208.545 205.884 209.254 205.894 209.964 L 206.462 254.867 C 206.549 261.731 212.14 267.238 218.987 267.236 C 219.04 267.236 219.094 267.236 219.148 267.235 C 226.067 267.148 231.604 261.468 231.517 254.549 L 230.963 210.713 C 231.709 206.009 244.318 126.717 244.397 124.84 L 283.322 82.943 C 287.087 78.889 286.854 72.549 282.799 68.78 Z " fill="rgb(204,122,0)"/><path d=" M 222.654 86.698 C 235.752 88.776 247.99 81.928 251.517 70.695 C 256.161 57.934 247.753 46.907 247.337 45.882 C 236.235 34.645 215.492 39.987 216.642 41.048 C 209.474 44.249 204.012 50.888 202.693 59.214 C 200.614 72.323 209.555 84.621 222.654 86.698 Z " fill="rgb(204,122,0)"/><path d=" M 137.77 166.4 C 127.699 101.69 127.699 101.69 127.699 101.69 L 156.678 39.186 C 159.474 33.158 156.852 26.007 150.824 23.212 C 144.799 20.417 137.645 23.036 134.85 29.066 L 109.835 83.022 C 105.841 81.744 101.568 81.392 97.348 82.061 L 79.738 84.853 C 75.565 85.515 71.652 87.143 68.274 89.55 L 27.845 46.033 C 23.321 41.165 15.711 40.886 10.842 45.407 C 5.975 49.93 5.695 57.542 10.217 62.41 L 56.941 112.701 C 56.941 112.701 63.924 158.129 73.066 215.777 L 72.4 268.394 C 72.295 276.698 78.941 283.515 87.246 283.621 C 87.31 283.622 87.376 283.622 87.44 283.622 C 95.655 283.622 102.368 277.014 102.473 268.775 L 103.155 214.876 C 103.167 214.023 103.104 213.172 102.971 212.33 L 99.054 187.633 L 113.957 184.787 L 130.725 205.409 L 130.725 248.454 C 130.725 256.759 137.458 263.491 145.763 263.491 C 154.067 263.491 160.8 256.759 160.8 248.454 L 160.8 200.068 C 160.8 196.613 159.61 193.262 157.431 190.58 L 137.77 166.4 Z " fill="rgb(204,122,0)"/></g></g></svg>