<?xml version="1.0" standalone="no"?><!-- Generator: Gravit.io --><svg xmlns="http://www.w3.org/2000/svg" xmlns:xlink="http://www.w3.org/1999/xlink" style="isolation:isolate" viewBox="0 0 292 292" width="292" height="292"><defs><clipPath id="_clipPath_v0xvuUzKQp0XuIpso15hOdBGVWAivBae"><rect width="292" height="292"/></clipPath></defs><g clip-path="url(#_clipPath_v0xvuUzKQp0XuIpso15hOdBGVWAivBae)"><g id="Group"><path d=" M 88.365 79.184 C 103.413 76.798 113.684 62.67 111.296 47.613 C 109.779 38.051 109.625 35.125 101 26.746 C 94.125 19.875 76.333 18 62 30.121 C 52.333 39.333 55.458 47.816 56.797 56.254 C 59.184 71.313 73.32 81.57 88.365 79.184 Z " fill="rgb(0,0,0)"/><path d=" M 272.937 76.168 C 269.057 72.563 262.988 72.784 259.382 76.666 L 227.139 111.371 C 224.447 109.454 221.335 108.143 218.008 107.615 L 203.968 105.389 C 200.604 104.856 197.198 105.138 194.014 106.156 L 174.07 63.139 C 171.841 58.333 166.139 56.244 161.334 58.471 C 156.528 60.699 154.439 66.402 156.666 71.207 L 179.776 121.051 C 179.275 122.889 179.914 119.136 171.742 172.633 L 159.127 188.147 L 159.497 188.603 C 162.992 192.901 164.899 198.271 164.899 203.809 L 164.899 250.017 C 165.056 250.022 165.21 250.04 165.368 250.04 C 171.99 250.04 177.358 244.673 177.358 238.051 L 177.358 203.732 L 190.728 187.29 L 202.608 189.559 L 199.486 209.249 C 199.38 209.92 199.33 210.599 199.339 211.279 L 199.883 254.251 C 199.967 260.82 205.317 266.089 211.869 266.087 C 211.92 266.087 211.972 266.087 212.024 266.086 C 218.645 266.003 223.944 260.568 223.86 253.946 L 223.33 211.995 C 224.044 207.494 236.111 131.612 236.186 129.817 L 273.438 89.721 C 277.04 85.841 276.818 79.774 272.937 76.168 Z " fill="rgb(0,0,0)"/><path d=" M 215.379 93.314 C 227.913 95.303 239.625 88.75 243 78 C 247.444 65.787 239.398 55.235 239 54.254 C 228.375 43.5 208.524 48.612 209.626 49.628 C 202.765 52.691 197.539 59.045 196.276 67.012 C 194.287 79.558 202.843 91.327 215.379 93.314 Z " fill="rgb(0,0,0)"/><path d=" M 137.145 169.588 C 127.508 107.662 127.508 107.662 127.508 107.662 L 155.24 47.846 C 157.916 42.077 155.407 35.234 149.638 32.559 C 143.872 29.885 137.026 32.39 134.351 38.161 L 110.412 89.797 C 106.59 88.574 102.501 88.236 98.462 88.877 L 81.61 91.549 C 77.616 92.183 73.871 93.74 70.638 96.044 L 31.948 54.398 C 27.619 49.74 20.336 49.473 15.677 53.8 C 11.019 58.128 10.751 65.413 15.079 70.071 L 59.793 118.199 C 59.793 118.199 66.476 161.673 75.224 216.841 L 74.587 267.196 C 74.487 275.142 80.847 281.667 88.795 281.768 C 88.856 281.769 88.919 281.769 88.98 281.769 C 96.842 281.769 103.267 275.445 103.367 267.56 L 104.019 215.979 C 104.03 215.163 103.97 214.349 103.843 213.543 L 100.095 189.908 L 114.357 187.184 L 130.404 206.92 L 130.404 248.113 C 130.404 256.061 136.847 262.504 144.794 262.504 C 152.742 262.504 159.185 256.061 159.185 248.113 L 159.185 201.808 C 159.185 198.502 158.046 195.295 155.961 192.729 L 137.145 169.588 Z " fill="rgb(0,0,0)"/></g></g></svg>