<?xml version="1.0" standalone="no"?><!-- Generator: Gravit.io --><svg xmlns="http://www.w3.org/2000/svg" xmlns:xlink="http://www.w3.org/1999/xlink" style="isolation:isolate" viewBox="0 0 292 292" width="292" height="292"><defs><clipPath id="_clipPath_sDW8DtzsTF1aiox8P0EKmvClyGo8na1J"><rect width="292" height="292"/></clipPath></defs><g clip-path="url(#_clipPath_sDW8DtzsTF1aiox8P0EKmvClyGo8na1J)"><g id="Group"><path d=" M 88.365 79.184 C 103.413 76.798 113.684 62.67 111.296 47.613 C 109.779 38.051 109.625 35.125 101 26.746 C 94.125 19.875 76.333 18 62 30.121 C 52.333 39.333 55.458 47.816 56.797 56.254 C 59.184 71.313 73.32 81.57 88.365 79.184 Z " fill="rgb(0,0,0)"/><path d=" M 275.937 76.168 C 272.057 72.563 265.988 72.784 262.382 76.666 L 230.139 111.371 C 227.447 109.454 224.335 108.143 221.008 107.615 L 206.968 105.389 C 203.604 104.856 200.198 105.138 197.014 106.156 L 177.07 63.139 C 174.841 58.333 169.139 56.244 164.334 58.471 C 159.528 60.699 157.439 66.402 159.666 71.207 L 182.776 121.051 C 182.275 122.889 182.914 119.136 174.742 172.633 L 162.127 188.147 L 162.497 188.603 C 165.992 192.901 167.899 198.271 167.899 203.809 L 167.899 250.017 C 168.056 250.022 168.21 250.04 168.368 250.04 C 174.99 250.04 180.358 244.673 180.358 238.051 L 180.358 203.732 L 193.728 187.29 L 205.608 189.559 L 202.486 209.249 C 202.38 209.92 202.33 210.599 202.339 211.279 L 202.883 254.251 C 202.967 260.82 208.317 266.089 214.869 266.087 C 214.92 266.087 214.972 266.087 215.024 266.086 C 221.645 266.003 226.944 260.568 226.86 253.946 L 226.33 211.995 C 227.044 207.494 239.111 131.612 239.186 129.817 L 276.438 89.721 C 280.04 85.841 279.818 79.774 275.937 76.168 Z " fill="rgb(0,0,0)"/><path d=" M 218.379 93.314 C 230.913 95.303 242.625 88.75 246 78 C 250.444 65.787 242.398 55.235 242 54.254 C 231.375 43.5 211.524 48.612 212.626 49.628 C 205.765 52.691 200.539 59.045 199.276 67.012 C 197.287 79.558 205.843 91.327 218.379 93.314 Z " fill="rgb(0,0,0)"/><path d=" M 137.145 169.588 C 127.508 107.662 127.508 107.662 127.508 107.662 L 155.24 47.846 C 157.916 42.077 155.407 35.234 149.638 32.559 C 143.872 29.885 137.026 32.39 134.351 38.161 L 110.412 89.797 C 106.59 88.574 102.501 88.236 98.462 88.877 L 81.61 91.549 C 77.616 92.183 73.871 93.74 70.638 96.044 L 31.948 54.398 C 27.619 49.74 20.336 49.473 15.677 53.8 C 11.019 58.128 10.751 65.413 15.079 70.071 L 59.793 118.199 C 59.793 118.199 66.476 161.673 75.224 216.841 L 74.587 267.196 C 74.487 275.142 80.847 281.667 88.795 281.768 C 88.856 281.769 88.919 281.769 88.98 281.769 C 96.842 281.769 103.267 275.445 103.367 267.56 L 104.019 215.979 C 104.03 215.163 103.97 214.349 103.843 213.543 L 100.095 189.908 L 114.357 187.184 L 130.404 206.92 L 130.404 248.113 C 130.404 256.061 136.847 262.504 144.794 262.504 C 152.742 262.504 159.185 256.061 159.185 248.113 L 159.185 201.808 C 159.185 198.502 158.046 195.295 155.961 192.729 L 137.145 169.588 Z " fill="rgb(0,0,0)"/></g></g></svg>