<?xml version="1.0" standalone="no"?>
<!DOCTYPE svg PUBLIC "-//W3C//DTD SVG 20010904//EN"
 "http://www.w3.org/TR/2001/REC-SVG-20010904/DTD/svg10.dtd">
<svg version="1.0" xmlns="http://www.w3.org/2000/svg"
 width="700.000000pt" height="700.000000pt" viewBox="0 0 700.000000 700.000000"
 preserveAspectRatio="xMidYMid meet">
<metadata>
Created by potrace 1.11, written by Peter Selinger 2001-2013
</metadata>
<g transform="translate(0.000000,700.000000) scale(0.100000,-0.100000)"
fill="#000000" stroke="none">
<path d="M4068 6743 c-47 -56 -298 -434 -298 -450 0 -12 88 -78 291 -218 160
-109 293 -203 295 -207 3 -4 -460 -8 -1029 -8 -894 0 -1036 -2 -1047 -15 -6
-8 -9 -19 -5 -25 3 -6 90 -131 191 -278 l185 -267 855 -5 855 -5 -296 -204
c-203 -141 -295 -210 -295 -222 0 -10 70 -120 156 -245 121 -174 160 -225 174
-221 10 2 190 124 401 269 211 146 591 408 844 583 253 174 463 322 467 328
11 18 -2 34 -60 74 -31 22 -246 170 -477 330 -231 159 -587 405 -792 546 -204
141 -378 257 -386 257 -7 0 -21 -8 -29 -17z"/>
<path d="M830 5012 c-321 -466 -584 -857 -585 -869 0 -16 47 -54 220 -174 121
-84 228 -153 239 -153 14 -1 74 78 225 297 l206 298 5 -1043 c5 -959 6 -1043
22 -1046 9 -2 139 82 290 186 l273 189 5 856 5 855 204 -295 c112 -162 209
-297 216 -300 13 -4 415 265 460 308 17 17 18 22 6 42 -25 40 -1143 1662
-1159 1680 -8 9 -22 17 -31 17 -10 0 -241 -327 -601 -848z"/>
<path d="M5764 4717 c-46 -26 -511 -351 -526 -369 -17 -19 -18 -75 -18 -865
l0 -846 -203 294 c-136 198 -209 295 -222 297 -19 3 -450 -285 -467 -311 -4
-6 -2 -20 4 -31 19 -36 1149 -1670 1169 -1691 19 -19 19 -19 43 5 48 52 1176
1699 1171 1712 -9 23 -438 312 -464 313 -20 0 -55 -46 -225 -291 l-201 -291
-5 1036 c-3 570 -6 1037 -8 1037 -15 10 -32 10 -48 1z"/>
<path d="M2578 2490 c-150 -103 -311 -215 -358 -247 -47 -33 -309 -214 -583
-403 -390 -268 -497 -347 -495 -362 4 -24 1703 -1199 1723 -1191 14 5 309 425
321 456 3 8 -1 21 -9 28 -7 8 -141 102 -296 209 l-283 195 1028 3 c739 1 1031
5 1041 13 7 6 13 17 13 23 0 9 -356 534 -377 556 -2 3 -387 7 -855 10 l-850 5
288 199 c159 110 292 204 296 210 4 6 5 17 3 25 -11 29 -307 450 -320 455 -8
3 -135 -79 -287 -184z"/>
</g>
</svg>
