<?xml version="1.0" standalone="no"?>
<!DOCTYPE svg PUBLIC "-//W3C//DTD SVG 20010904//EN"
 "http://www.w3.org/TR/2001/REC-SVG-20010904/DTD/svg10.dtd">
<svg version="1.0" xmlns="http://www.w3.org/2000/svg"
 width="700.000000pt" height="700.000000pt" viewBox="0 0 700.000000 700.000000"
 preserveAspectRatio="xMidYMid meet">
<metadata>
Created by potrace 1.11, written by Peter Selinger 2001-2013
</metadata>
<g transform="translate(0.000000,700.000000) scale(0.100000,-0.100000)"
fill="#000000" stroke="none">
<path d="M1868 6713 c-313 -52 -566 -256 -607 -488 -10 -54 -7 -198 4 -235 2
-8 7 -37 11 -65 40 -308 209 -527 481 -622 70 -25 92 -28 213 -28 144 0 201
12 305 63 233 115 383 351 386 607 2 92 -23 250 -52 344 -28 89 -77 160 -183
266 -81 81 -100 94 -171 122 -119 46 -252 59 -387 36z"/>
<path d="M3438 6465 c-2 -3 -13 -6 -24 -8 -65 -11 -139 -76 -181 -159 -37 -72
-143 -298 -143 -303 0 -2 -24 -54 -54 -117 -29 -62 -65 -138 -79 -168 -33 -73
-71 -155 -150 -325 -35 -77 -86 -185 -111 -240 -25 -55 -50 -107 -55 -115 -9
-16 -11 -16 -115 1 -63 10 -214 7 -233 -4 -5 -3 -30 -8 -58 -11 -43 -5 -119
-17 -135 -21 -3 -1 -34 -5 -70 -10 -36 -5 -67 -9 -70 -10 -3 -1 -25 -5 -50
-10 -25 -5 -47 -9 -50 -10 -3 -1 -18 -5 -35 -10 -39 -10 -154 -65 -161 -76
-15 -25 -34 -9 -179 147 -50 54 -114 123 -241 259 -125 134 -223 241 -265 286
-60 65 -240 258 -294 315 -78 81 -135 108 -230 108 -86 0 -143 -24 -202 -84
-103 -105 -110 -272 -16 -384 14 -17 71 -80 127 -140 55 -60 108 -117 116
-126 8 -9 65 -71 126 -136 62 -65 126 -134 144 -153 17 -19 77 -84 133 -144
56 -60 115 -124 131 -141 40 -44 231 -249 293 -315 29 -31 55 -63 57 -71 4
-13 31 -177 41 -250 2 -14 6 -38 9 -55 2 -16 8 -50 11 -75 4 -25 9 -54 11 -65
2 -10 6 -37 9 -60 4 -22 8 -53 11 -70 3 -16 7 -46 10 -65 2 -19 11 -73 19
-120 7 -47 17 -103 20 -125 3 -22 8 -51 10 -65 7 -40 35 -222 40 -255 5 -33
35 -227 65 -422 11 -67 21 -133 24 -147 2 -13 10 -60 16 -103 6 -43 13 -89 16
-103 11 -66 35 -216 39 -244 2 -17 11 -76 20 -131 14 -88 15 -165 9 -635 -10
-828 -11 -795 18 -866 31 -77 70 -126 135 -169 197 -132 454 -44 540 185 16
42 21 163 27 665 9 726 9 779 -13 910 -11 66 -22 138 -26 160 -3 22 -12 78
-20 125 -8 47 -17 105 -20 130 -4 24 -9 48 -11 52 -2 3 4 9 13 12 37 10 345
67 347 64 1 -2 55 -68 120 -148 156 -192 142 -175 215 -264 l65 -79 1 -551 c1
-544 2 -552 24 -608 56 -143 182 -230 336 -230 117 0 219 51 288 145 72 97 71
86 71 797 l0 635 -23 62 c-19 50 -69 118 -268 365 -135 167 -249 308 -253 313
-5 6 -11 30 -15 55 -3 25 -10 70 -15 100 -5 30 -14 84 -19 120 -63 398 -57
359 -65 420 -3 25 -11 70 -16 100 -5 30 -12 72 -15 94 -2 21 -6 46 -9 55 -3 9
-8 43 -11 76 -4 32 -8 62 -10 65 -2 3 -6 24 -9 46 -10 78 -27 191 -41 275 -26
149 -26 146 17 238 78 168 110 236 125 271 8 19 19 43 24 53 6 10 36 76 69
145 32 70 73 161 93 202 19 41 46 100 60 130 14 30 73 159 132 285 177 380
178 382 177 447 -2 154 -123 277 -278 284 -34 2 -64 1 -66 -1z"/>
<path d="M5307 6053 c-59 -10 -97 -24 -150 -55 -84 -49 -181 -142 -221 -211
-175 -300 -54 -683 259 -821 80 -36 152 -49 260 -49 267 1 491 151 570 380 61
178 45 341 -52 526 -59 112 -165 186 -319 223 -89 21 -248 25 -347 7z"/>
<path d="M4035 5811 c-109 -27 -185 -120 -187 -229 -1 -61 11 -93 100 -282 27
-58 59 -125 70 -150 11 -25 39 -85 62 -135 23 -49 98 -211 167 -360 69 -148
141 -304 160 -345 20 -41 36 -79 35 -85 0 -10 -2 -21 -27 -175 -8 -47 -21
-132 -30 -190 -8 -58 -17 -116 -19 -130 -3 -14 -7 -47 -11 -75 -3 -27 -8 -57
-10 -65 -4 -14 -9 -49 -20 -127 -12 -87 -58 -379 -69 -443 -3 -14 -5 -37 -5
-51 -1 -24 -110 -168 -269 -357 -52 -61 -54 -67 -33 -93 58 -75 106 -193 118
-294 3 -27 6 -313 6 -635 0 -364 4 -587 10 -591 13 -9 104 13 144 34 51 27
103 85 131 146 l26 56 1 460 1 461 129 159 c71 88 132 162 135 165 3 3 21 24
39 48 19 24 39 41 47 38 7 -3 66 -15 131 -26 152 -28 153 -28 143 -82 -5 -24
-11 -61 -14 -83 -10 -67 -18 -119 -22 -140 -3 -11 -7 -38 -9 -60 -3 -22 -11
-76 -18 -120 -7 -44 -12 -114 -11 -155 1 -41 5 -290 8 -553 3 -273 10 -497 16
-525 30 -131 150 -225 290 -225 139 0 243 80 289 222 8 25 9 181 5 540 -8 630
-9 611 11 712 5 22 56 344 71 444 4 22 8 49 10 60 2 11 11 65 19 121 8 55 21
138 29 185 8 46 18 104 21 129 3 25 8 52 10 60 2 8 7 40 10 70 3 30 8 62 10
70 2 8 7 35 10 60 3 25 8 56 10 70 2 14 11 72 20 130 9 58 18 116 21 130 5 27
11 69 19 123 28 204 47 290 68 311 22 23 204 217 254 272 22 25 155 167 282
303 18 20 58 63 89 96 30 33 103 112 163 175 165 177 182 203 182 290 0 96
-50 178 -138 222 -77 40 -200 19 -265 -44 -23 -23 -186 -197 -245 -263 -15
-16 -55 -59 -89 -95 -34 -36 -115 -123 -181 -195 -66 -71 -141 -152 -167 -180
-26 -27 -67 -72 -92 -98 l-45 -49 -28 19 c-15 11 -50 29 -78 40 -70 29 -100
35 -385 78 -14 2 -45 7 -69 10 -91 15 -185 11 -250 -10 -14 -4 -24 9 -51 67
-19 40 -57 123 -86 183 -28 61 -75 162 -104 225 -212 465 -297 638 -327 666
-59 55 -148 81 -218 65z"/>
</g>
</svg>
