<?xml version="1.0" encoding="iso-8859-1"?>
<!DOCTYPE svg PUBLIC "-//W3C//DTD SVG 1.1//EN" "http://www.w3.org/Graphics/SVG/1.1/DTD/svg11.dtd">
<svg fill="#ff9800" version="1.1" id="Capa_1" xmlns="http://www.w3.org/2000/svg" xmlns:xlink="http://www.w3.org/1999/xlink" x="0px" y="0px"
	 viewBox="0 0 292.907 292.907" xml:space="preserve">
<path d="M110.668 71.82c.24.35.641.566 1.072.566h71.087l-24.715 17.058a1.302 1.302 0 0 0-.331 1.818l12.59 18.24a1.302 1.302 0 0 0 1.814.33l70.636-48.765a1.307 1.307 0 0 0 0-2.148l-70.636-48.756a1.302 1.302 0 0 0-1.813.331l-12.591 18.24a1.302 1.302 0 0 0 .33 1.818l24.716 17.058H96.435a1.302 1.302 0 0 0-1.072 2.049l15.305 22.161zM47.614 194.563a1.307 1.307 0 0 0 2.044 1.072l22.166-15.3a1.307 1.307 0 0 0 .561-1.072V108.17l17.063 24.716a1.312 1.312 0 0 0 1.818.336l18.235-12.596c.286-.2.481-.501.541-.837s-.015-.69-.205-.976l-48.76-70.637a1.312 1.312 0 0 0-2.15 0l-48.765 70.637a1.302 1.302 0 0 0 .331 1.813l18.24 12.596a1.312 1.312 0 0 0 1.818-.336l17.063-24.716v86.393zm132.714 24.61a1.302 1.302 0 0 0-1.072-.56H108.17l24.716-17.069a1.312 1.312 0 0 0 .336-1.813l-12.601-18.24a1.302 1.302 0 0 0-.837-.55 1.322 1.322 0 0 0-.971.215l-70.632 48.77a1.302 1.302 0 0 0 0 2.139l70.637 48.765a1.302 1.302 0 0 0 1.803-.335l12.6-18.236a1.307 1.307 0 0 0-.335-1.818l-24.716-17.068h86.393a1.312 1.312 0 0 0 1.157-.69 1.322 1.322 0 0 0-.08-1.348l-15.31-22.162zM281.05 171.21a1.322 1.322 0 0 0-.55-.836l-18.23-12.59a1.302 1.302 0 0 0-1.819.33l-17.068 24.71V96.431a1.302 1.302 0 0 0-2.038-1.072l-22.167 15.305a1.297 1.297 0 0 0-.56 1.077v71.082l-17.069-24.71a1.302 1.302 0 0 0-1.813-.33l-18.24 12.59a1.312 1.312 0 0 0-.546.836 1.342 1.342 0 0 0 .206.977l48.77 70.636a1.302 1.302 0 0 0 2.139 0l48.765-70.636a1.302 1.302 0 0 0 .22-.977z" stroke="null"/></svg>